<svg width="120" height="120" viewBox="0 0 120 120" fill="none" xmlns="http://www.w3.org/2000/svg">
<path d="M0 36C0 16.1178 16.1178 0 36 0H84C103.882 0 120 16.1178 120 36V84C120 103.882 103.882 120 84 120H36C16.1178 120 0 103.882 0 84V36Z" fill="url(#paint0_linear_136_12)"/>
<path d="M18 95.9989V24.0011L18.0352 23.0636C18.3991 18.3977 21.4615 14.329 25.916 12.7163C30.6659 10.9974 35.9827 12.4394 39.2168 16.3197L78 62.8534V24.0011C78 17.3739 83.3726 12.0015 90 12.0015C96.6274 12.0015 102 17.3739 102 24.0011V95.9989C102 101.051 98.8345 105.564 94.084 107.284C89.3341 109.003 84.0173 107.561 80.7832 103.68L42 57.1407V95.9989C42 102.626 36.6274 107.999 30 107.999C23.3726 107.999 18 102.626 18 95.9989Z" fill="black"/>
<g filter="url(#filter0_di_136_12)">
<path d="M48 95.9989C48 102.626 42.6274 107.999 36 107.999C32.6546 107.999 29.6333 106.627 27.457 104.419L48 86.4425V95.9989ZM107.941 97.0945C107.521 101.694 104.488 105.689 100.084 107.284C95.3341 109.003 90.0173 107.561 86.7832 103.68L73.9512 88.2823L107.941 97.0945ZM38.25 79.0247L24 91.499V75.3276L38.25 79.0247ZM108 90.9131L67.3594 80.3782L62.1211 74.0854L80.1855 58.2772L84 62.8533V54.9492L108 33.9498V90.9131ZM31.916 12.716C36.6654 10.9975 41.9828 12.4399 45.2168 16.3194L72.5039 49.0607L54.4395 64.863L48 57.1406V70.4996L43.7109 74.2436L24 69.1344V24.0008L24.0352 23.0634C24.3996 18.398 27.4619 14.3285 31.916 12.716ZM96 12.0012C100.829 12.0012 104.977 14.8618 106.881 18.9736L84 39.0004V24.0008C84.0008 17.3743 89.3731 12.0012 96 12.0012Z" fill="url(#paint1_linear_136_12)"/>
</g>
<defs>
<filter id="filter0_di_136_12" x="23" y="12" width="85" height="96" filterUnits="userSpaceOnUse" color-interpolation-filters="sRGB">
<feFlood flood-opacity="0" result="BackgroundImageFix"/>
<feColorMatrix in="SourceAlpha" type="matrix" values="0 0 0 0 0 0 0 0 0 0 0 0 0 0 0 0 0 0 127 0" result="hardAlpha"/>
<feOffset dx="-1"/>
<feComposite in2="hardAlpha" operator="out"/>
<feColorMatrix type="matrix" values="0 0 0 0 0 0 0 0 0 0 0 0 0 0 0 0 0 0 1 0"/>
<feBlend mode="normal" in2="BackgroundImageFix" result="effect1_dropShadow_136_12"/>
<feBlend mode="normal" in="SourceGraphic" in2="effect1_dropShadow_136_12" result="shape"/>
<feColorMatrix in="SourceAlpha" type="matrix" values="0 0 0 0 0 0 0 0 0 0 0 0 0 0 0 0 0 0 127 0" result="hardAlpha"/>
<feOffset dx="-1"/>
<feComposite in2="hardAlpha" operator="arithmetic" k2="-1" k3="1"/>
<feColorMatrix type="matrix" values="0 0 0 0 0.75 0 0 0 0 0 0 0 0 0 1 0 0 0 1 0"/>
<feBlend mode="normal" in2="shape" result="effect2_innerShadow_136_12"/>
</filter>
<linearGradient id="paint0_linear_136_12" x1="0" y1="0" x2="111" y2="120" gradientUnits="userSpaceOnUse">
<stop offset="0.100962" stop-color="#667EEA"/>
<stop offset="0.932692" stop-color="#764BA2"/>
</linearGradient>
<linearGradient id="paint1_linear_136_12" x1="24" y1="12" x2="112.933" y2="96.1255" gradientUnits="userSpaceOnUse">
<stop offset="0.100962" stop-color="#667EEA"/>
<stop offset="0.932692" stop-color="#764BA2"/>
</linearGradient>
</defs>
</svg>
